<svg id="_211677_image_icon" data-name="211677_image_icon" xmlns="http://www.w3.org/2000/svg" width="43.986" height="37.702" viewBox="0 0 43.986 37.702">
  <path id="Path_472" data-name="Path 472" d="M325.13,138.259a5.13,5.13,0,1,0-5.13-5.13A5.131,5.131,0,0,0,325.13,138.259Z" transform="translate(-293.113 -121.902)" fill="#dededf"/>
  <path id="Path_473" data-name="Path 473" d="M73.237,64H34.749A2.757,2.757,0,0,0,32,66.779V98.924a2.757,2.757,0,0,0,2.749,2.779H73.237a2.757,2.757,0,0,0,2.749-2.779V66.779A2.757,2.757,0,0,0,73.237,64ZM63.114,83.411a1.686,1.686,0,0,0-1.257-.609,1.94,1.94,0,0,0-1.257.56l-1.836,1.551a1.842,1.842,0,0,1-1.129.461,1.625,1.625,0,0,1-1.08-.4c-.1-.088-.275-.255-.422-.4l-5.282-5.714a2.165,2.165,0,0,0-1.64-.736,2.23,2.23,0,0,0-1.649.766L35.142,93.867V68.291a1.294,1.294,0,0,1,1.286-1.149h35.12a1.246,1.246,0,0,1,1.267,1.178l.029,25.567Z" transform="translate(-32 -64)" fill="#dededf"/>
</svg>
