<svg xmlns="http://www.w3.org/2000/svg" width="246.009" height="138.048" viewBox="0 0 246.009 138.048">
  <g id="_лой_1" transform="translate(0.004 -0.225)">
    <g id="Group_1791" data-name="Group 1791" transform="translate(-0.004 0.225)">
      <path id="Path_476" data-name="Path 476" d="M35.671,99.338c33.6-12.474,67.755-1.446,90.917,22.575s71.773-16.58,97.554,7.4c17.594,16.366,9.535,58.445-14.589,76.67-32.791,24.772-132.511,12.2-154.082,7.987-24.852-4.857-43.02-19.592-50.4-37.478C-12.718,133.4,20.822,104.851,35.671,99.338Z" transform="translate(0.004 -86.541)" fill="none"/>
      <g id="Group_1771" data-name="Group 1771" transform="translate(25.479)">
        <g id="Group_1769" data-name="Group 1769" transform="translate(70.056)">
          <path id="Path_477" data-name="Path 477" d="M1236.224,30.128a27.753,27.753,0,0,0,.174-3.1c0-.552-.018-1.1-.05-1.645l-5.118-1.656a22.512,22.512,0,0,0-1.812-6.132l3.394-4.176a27.511,27.511,0,0,0-2.689-3.907l-5.118,1.67a22.789,22.789,0,0,0-5.067-3.9l.291-5.378a27.383,27.383,0,0,0-4.467-1.584L1212.6,4.691a22.749,22.749,0,0,0-6.39-.167L1203.287,0a27.37,27.37,0,0,0-4.546,1.343l.006,5.386a22.7,22.7,0,0,0-5.266,3.622l-5.021-1.938a27.658,27.658,0,0,0-2.891,3.76l3.169,4.35a22.489,22.489,0,0,0-2.136,6.027l-5.2,1.383a27.724,27.724,0,0,0-.174,3.1c0,.552.018,1.1.05,1.645l5.118,1.656a22.516,22.516,0,0,0,1.812,6.132l-3.393,4.176a27.507,27.507,0,0,0,2.688,3.907l5.119-1.67a22.736,22.736,0,0,0,5.067,3.9l-.291,5.378a27.391,27.391,0,0,0,4.468,1.584l3.161-4.362a22.749,22.749,0,0,0,6.389.167l2.926,4.523a27.361,27.361,0,0,0,4.546-1.343l-.006-5.386a22.69,22.69,0,0,0,5.266-3.622l5.022,1.938a27.689,27.689,0,0,0,2.891-3.76l-3.169-4.35a22.46,22.46,0,0,0,2.136-6.027l5.2-1.383Zm-27.411,7.722a10.819,10.819,0,1,1,10.82-10.819,10.82,10.82,0,0,1-10.82,10.819Z" transform="translate(-1181.23)" fill="#f9f9fc"/>
          <path id="Path_478" data-name="Path 478" d="M1700.162,272.805a.4.4,0,0,1-.258-.094.405.405,0,0,1-.053-.569,18.3,18.3,0,0,0,3.226-17.63.4.4,0,0,1,.765-.264,19.115,19.115,0,0,1-3.368,18.411.4.4,0,0,1-.312.146Z" transform="translate(-1657.822 -233.435)" fill="#cbcbcb"/>
          <path id="Path_479" data-name="Path 479" d="M1607.7,116.826a.4.4,0,0,1-.278-.11,18.166,18.166,0,0,0-6.291-3.876.4.4,0,1,1,.276-.76,18.972,18.972,0,0,1,6.57,4.047.4.4,0,0,1-.277.7Z" transform="translate(-1566.931 -102.992)" fill="#cbcbcb"/>
          <path id="Path_480" data-name="Path 480" d="M1465.82,99.656a.4.4,0,0,1-.1-.8,19.167,19.167,0,0,1,4.685-.579.4.4,0,0,1,0,.809,18.347,18.347,0,0,0-4.486.555A.418.418,0,0,1,1465.82,99.656Z" transform="translate(-1442.432 -90.331)" fill="#cbcbcb"/>
        </g>
        <g id="Group_1770" data-name="Group 1770" transform="translate(0 77.768)">
          <path id="Path_481" data-name="Path 481" d="M353.122,982.426a19.354,19.354,0,0,0,.12-2.145c0-.383-.013-.763-.035-1.139l-3.545-1.147a15.583,15.583,0,0,0-1.255-4.247l2.35-2.892a19.13,19.13,0,0,0-1.862-2.706l-3.545,1.157a15.758,15.758,0,0,0-3.509-2.7l.2-3.724a18.98,18.98,0,0,0-3.094-1.1l-2.189,3.021a15.784,15.784,0,0,0-4.426-.116l-2.027-3.132a18.956,18.956,0,0,0-3.148.93l0,3.73a15.733,15.733,0,0,0-3.648,2.509l-3.478-1.342a19.267,19.267,0,0,0-2,2.6l2.2,3.013a15.606,15.606,0,0,0-1.48,4.174l-3.6.958a19.38,19.38,0,0,0-.12,2.145c0,.383.013.763.035,1.14l3.545,1.147a15.588,15.588,0,0,0,1.255,4.247l-2.35,2.892a19.126,19.126,0,0,0,1.862,2.706l3.545-1.156a15.762,15.762,0,0,0,3.509,2.7l-.2,3.724a18.978,18.978,0,0,0,3.094,1.1l2.189-3.021a15.747,15.747,0,0,0,2.624.219,15.989,15.989,0,0,0,1.8-.1L337.965,999a18.955,18.955,0,0,0,3.148-.93l0-3.73a15.733,15.733,0,0,0,3.648-2.509l3.478,1.342a19.225,19.225,0,0,0,2-2.6l-2.2-3.013a15.6,15.6,0,0,0,1.48-4.174Zm-18.986,5.349a7.494,7.494,0,1,1,7.494-7.494A7.494,7.494,0,0,1,334.136,987.774Z" transform="translate(-315.03 -961.56)" fill="#f9f9fc"/>
          <path id="Path_482" data-name="Path 482" d="M673.062,1149.188a.4.4,0,0,1-.258-.094.405.405,0,0,1-.053-.569,12.554,12.554,0,0,0,2.212-12.092.4.4,0,0,1,.765-.264,13.363,13.363,0,0,1-2.355,12.872.4.4,0,0,1-.312.145Z" transform="translate(-643.735 -1121.796)" fill="#cbcbcb"/>
          <path id="Path_483" data-name="Path 483" d="M609.009,1041.154a.4.4,0,0,1-.277-.11,12.453,12.453,0,0,0-4.315-2.658.4.4,0,1,1,.276-.761,13.254,13.254,0,0,1,4.593,2.83.4.4,0,0,1-.277.7Z" transform="translate(-580.767 -1031.45)" fill="#cbcbcb"/>
          <path id="Path_484" data-name="Path 484" d="M510.74,1029.262a.4.4,0,0,1-.1-.8,13.418,13.418,0,0,1,3.276-.405.4.4,0,0,1,0,.809,12.61,12.61,0,0,0-3.077.38.409.409,0,0,1-.1.012Z" transform="translate(-494.54 -1022.682)" fill="#cbcbcb"/>
        </g>
        <path id="Path_485" data-name="Path 485" d="M1774.677,470.386c0-.209-.006-.417-.017-.623l2.656-2.133a14.088,14.088,0,0,0-.965-3.051l-3.429-.26a11.428,11.428,0,0,0-2.968-3.15l-.011-3.417a14.154,14.154,0,0,0-3.041-1.173l-2.344,2.523a11.418,11.418,0,0,0-4.215.331l-2.688-2.129a14.227,14.227,0,0,0-2.843,1.648l.509,3.388a11.378,11.378,0,0,0-2.394,3.494l-3.344.775a14.272,14.272,0,0,0-.494,3.223l2.945,1.7a11.269,11.269,0,0,0,1.259,4.161l-1.474,3.088a14.319,14.319,0,0,0,2.167,2.358l3.157-1.237a11.277,11.277,0,0,0,4.164,1.652l1.488,3.064c.177.006.355.011.534.011a14.324,14.324,0,0,0,2.612-.239l1-3.246a11.337,11.337,0,0,0,3.919-2.274l3.318.746a14.3,14.3,0,0,0,1.768-2.612l-1.923-2.825a11.324,11.324,0,0,0,.651-3.8Zm-11.474,5a4.781,4.781,0,1,1,4.781-4.781A4.781,4.781,0,0,1,1763.2,475.386Z" transform="translate(-1633.108 -419.653)" fill="#f9f9fc"/>
      </g>
      <g id="Group_1774" data-name="Group 1774" transform="translate(184.921 12.126)">
        <g id="Group_1772" data-name="Group 1772" transform="translate(19.332 1.202)" opacity="0.8">
          <path id="Path_486" data-name="Path 486" d="M2532.456,174.664h-4.108a2.881,2.881,0,0,1-2.878-2.878v-4.109a2.881,2.881,0,0,1,2.878-2.878h4.108a2.881,2.881,0,0,1,2.878,2.878v4.109A2.881,2.881,0,0,1,2532.456,174.664Zm-4.108-8.731a1.747,1.747,0,0,0-1.746,1.745v4.109a1.747,1.747,0,0,0,1.746,1.745h4.108a1.747,1.747,0,0,0,1.746-1.745v-4.109a1.747,1.747,0,0,0-1.746-1.745Z" transform="translate(-2525.47 -164.8)" fill="#f9f9fc"/>
        </g>
        <g id="Group_1773" data-name="Group 1773" transform="translate(0 1.202)" opacity="0.8">
          <path id="Path_487" data-name="Path 487" d="M2293.427,174.664h-4.109a2.881,2.881,0,0,1-2.877-2.878v-4.109a2.881,2.881,0,0,1,2.877-2.878h4.109a2.881,2.881,0,0,1,2.877,2.878v4.109A2.881,2.881,0,0,1,2293.427,174.664Zm-4.109-8.731a1.747,1.747,0,0,0-1.745,1.745v4.109a1.747,1.747,0,0,0,1.745,1.745h4.109a1.747,1.747,0,0,0,1.745-1.745v-4.109a1.747,1.747,0,0,0-1.745-1.745Z" transform="translate(-2286.44 -164.8)" fill="#f9f9fc"/>
        </g>
        <path id="Path_488" data-name="Path 488" d="M2311.518,158.61h-.024a.487.487,0,0,1-.362-.189l-2.953-3.852a.485.485,0,0,1,.771-.59l2.6,3.4,6.8-7.285a.485.485,0,1,1,.709.662l-7.19,7.7a.485.485,0,0,1-.354.154Z" transform="translate(-2306.329 -149.936)" fill="#f37168"/>
      </g>
      <path id="Path_489" data-name="Path 489" d="M415.728,1574.449c-16.82-.823-74.04.571-91.442,1.113s-37.6-.716-48.1-2.568-71.145.157-68.393,5.138,27.023,2.228,54.548,4.23,89.426-.25,103.388,0,26.767-.5,44.761-1.5,14.982-5.935,5.233-6.411Z" transform="translate(-190.909 -1445.151)" fill="none"/>
      <g id="Group_1778" data-name="Group 1778" transform="translate(17.735 25.155)">
        <rect id="Rectangle_1015" data-name="Rectangle 1015" width="35.16" height="57.631" fill="#cbcbcb"/>
        <rect id="Rectangle_1016" data-name="Rectangle 1016" width="32.163" height="54.26" transform="translate(1.842 1.174)" fill="#fff"/>
        <g id="Group_1775" data-name="Group 1775" transform="translate(11.461 6.71)">
          <path id="Path_490" data-name="Path 490" d="M360.991,555.508c1.211-2.6,3.259-3.438,6.624-3.438,4.006,0,6.086,1.451,6.676,3.564-7.174.1-13.3-.126-13.3-.126Z" transform="translate(-360.99 -539.286)" fill="#9bd6e8"/>
          <path id="Path_491" data-name="Path 491" d="M368.068,394.121c-1.7.476-1.622,1.429-2.187,2.313s-1.794,1.475-1.941,2.064.379,1.818-.246,2.506-.835,1.032-.59,1.72.786,1.769.835,1.916a2.753,2.753,0,0,0,1.572,1.326,17.712,17.712,0,0,1,3.194.737c.786.344,3.314-.44,4.717-.391s2.358-.984,2.26-1.673,1.034-2.064,1.032-3.243c0-1.267-1.474-2.211-1.867-3.047s.049-2.31-1.425-3.182a8.458,8.458,0,0,0-2.31-.748,5.46,5.46,0,0,0-3.047-.3Z" transform="translate(-362.841 -394.003)" fill="#3a384d"/>
          <path id="Path_492" data-name="Path 492" d="M427.664,481.722c-.383.566-.665.59-1.081,0a5.391,5.391,0,0,1-.983-2.075v-5.395a.986.986,0,0,1,.983-.983h1.081a.986.986,0,0,1,.983.983v5.395A5.465,5.465,0,0,1,427.664,481.722Z" transform="translate(-420.375 -466.859)" fill="#ffb27d"/>
          <path id="Path_493" data-name="Path 493" d="M427.664,473.27h-1.081a.986.986,0,0,0-.983.983v4.813a2.94,2.94,0,0,0,3.047-1.247v-3.566A.986.986,0,0,0,427.664,473.27Z" transform="translate(-420.375 -466.859)" fill="#ed975d"/>
          <ellipse id="Ellipse_3" data-name="Ellipse 3" cx="3.267" cy="4.452" rx="3.267" ry="4.452" transform="translate(3.482 2.014)" fill="#ffb27d"/>
          <path id="Path_494" data-name="Path 494" d="M405.191,410.16c-2.064,3.489-5.111,3.145-5.111,3.145s.074-4.619,2.493-4.865,3.845.725,4.337,2.328a3.953,3.953,0,0,1,0,2.659,4.238,4.238,0,0,1-1.179-1.6,11.45,11.45,0,0,1-.54-1.671Z" transform="translate(-396.918 -407.237)" fill="#3a384d"/>
          <path id="Path_495" data-name="Path 495" d="M388.5,463.4c.306.644.205,1.33-.223,1.534s-1.025-.153-1.33-.8-.205-1.33.223-1.534S388.2,462.761,388.5,463.4Z" transform="translate(-384.686 -457.007)" fill="#ffb27d"/>
          <path id="Path_496" data-name="Path 496" d="M476.868,463.4c-.306.644-.205,1.33.223,1.534s1.025-.153,1.33-.8.205-1.33-.223-1.534S477.174,462.761,476.868,463.4Z" transform="translate(-467.333 -457.007)" fill="#ffb27d"/>
          <path id="Path_497" data-name="Path 497" d="M431.707,503.81a1.415,1.415,0,0,1-2.457,0Z" transform="translate(-423.729 -494.929)" fill="#fff"/>
        </g>
        <path id="Path_498" data-name="Path 498" d="M387.861,660.119h-8.252a.959.959,0,0,1,0-1.919h8.252a.959.959,0,0,1,0,1.919Z" transform="translate(-365.761 -630.122)" fill="#99bbeb"/>
        <path id="Path_499" data-name="Path 499" d="M372.2,696.568H360.929a.959.959,0,0,1,0-1.918H372.2a.959.959,0,1,1,0,1.918Z" transform="translate(-348.592 -663.624)" fill="#99bbeb"/>
        <path id="Path_500" data-name="Path 500" d="M293.08,836.813H265.656a.556.556,0,1,1,0-1.113H293.08a.556.556,0,0,1,0,1.113Z" transform="translate(-261.394 -793.267)" fill="#99bbeb"/>
        <path id="Path_501" data-name="Path 501" d="M293.08,868.813H265.656a.556.556,0,1,1,0-1.113H293.08a.556.556,0,1,1,0,1.113Z" transform="translate(-261.394 -822.678)" fill="#99bbeb"/>
        <path id="Path_502" data-name="Path 502" d="M293.08,900.813H265.656a.556.556,0,1,1,0-1.113H293.08a.556.556,0,1,1,0,1.113Z" transform="translate(-261.394 -852.09)" fill="#99bbeb"/>
        <path id="Path_503" data-name="Path 503" d="M327.857,373.023H308.1a1,1,0,0,1-.994-.994v-18.2a1,1,0,0,1,.994-.994h19.753a1,1,0,0,1,.994.994v18.2A1,1,0,0,1,327.857,373.023ZM308.1,353.639a.188.188,0,0,0-.185.185v18.2a.188.188,0,0,0,.185.185h19.753a.188.188,0,0,0,.185-.185v-18.2a.188.188,0,0,0-.185-.185Z" transform="translate(-300.007 -349.449)" fill="#99bbeb"/>
        <g id="Group_1776" data-name="Group 1776" transform="translate(9.098 35.447)">
          <path id="Path_504" data-name="Path 504" d="M333.62,749.32l.572,1.159,1.279.185-.925.9.218,1.273-1.144-.6-1.144.6.218-1.273-.925-.9,1.279-.185Z" transform="translate(-331.77 -749.32)" fill="#99bbeb"/>
          <path id="Path_505" data-name="Path 505" d="M391.53,749.32l.572,1.159,1.279.185-.925.9.218,1.273-1.144-.6-1.144.6.218-1.273-.925-.9,1.279-.185Z" transform="translate(-384.996 -749.32)" fill="#99bbeb"/>
          <path id="Path_506" data-name="Path 506" d="M449.451,749.32l.572,1.159,1.279.185-.925.9.218,1.273-1.144-.6-1.144.6.218-1.273-.925-.9,1.279-.185Z" transform="translate(-438.232 -749.32)" fill="#99bbeb"/>
          <path id="Path_507" data-name="Path 507" d="M507.36,749.32l.572,1.159,1.279.185-.925.9.218,1.273-1.144-.6-1.144.6.218-1.273-.925-.9,1.279-.185Z" transform="translate(-491.458 -749.32)" fill="#99bbeb"/>
        </g>
      </g>
      <g id="Group_1782" data-name="Group 1782" transform="translate(96.123 25.155)">
        <rect id="Rectangle_1017" data-name="Rectangle 1017" width="35.16" height="57.631" fill="#cbcbcb"/>
        <rect id="Rectangle_1018" data-name="Rectangle 1018" width="32.163" height="54.26" transform="translate(1.841 1.174)" fill="#fff"/>
        <g id="Group_1781" data-name="Group 1781" transform="translate(3.705 3.381)">
          <g id="Group_1779" data-name="Group 1779" transform="translate(7.756 3.677)">
            <path id="Path_508" data-name="Path 508" d="M1349.1,470.31c0,2.582,1.554,6.746,5.221,6.612s4.477-4.1,4.619-5.224S1349.1,470.31,1349.1,470.31Z" transform="translate(-1347.572 -464.485)" fill="#7a4e34"/>
            <path id="Path_509" data-name="Path 509" d="M1330.211,555.508c1.21-2.6,3.259-3.438,6.624-3.438,4.006,0,6.086,1.451,6.676,3.564-7.174.1-13.3-.126-13.3-.126Z" transform="translate(-1330.21 -539.633)" fill="#d54a41"/>
            <path id="Path_510" data-name="Path 510" d="M1396.884,481.722c-.383.566-.665.59-1.081,0a5.389,5.389,0,0,1-.983-2.075v-5.395a.986.986,0,0,1,.983-.983h1.081a.985.985,0,0,1,.982.983v5.395A5.469,5.469,0,0,1,1396.884,481.722Z" transform="translate(-1389.594 -467.206)" fill="#ffb27d"/>
            <path id="Path_511" data-name="Path 511" d="M1396.884,473.27H1395.8a.986.986,0,0,0-.983.983v4.813a2.939,2.939,0,0,0,3.047-1.247v-3.566A.985.985,0,0,0,1396.884,473.27Z" transform="translate(-1389.594 -467.206)" fill="#ed975d"/>
            <ellipse id="Ellipse_4" data-name="Ellipse 4" cx="3.267" cy="4.452" rx="3.267" ry="4.452" transform="translate(3.481 1.667)" fill="#ffb27d"/>
            <path id="Path_512" data-name="Path 512" d="M1356,401.024c-.388,1.369-1.239,1.353-2.426,1.8a3.217,3.217,0,0,0-2.142,1.778c-.495,1.117.225,4.374.225,4.374s-3-2.248-2.657-5.784,2.432-4.905,4.395-4.905a3.145,3.145,0,0,1,2.708,1.2,2.937,2.937,0,0,1,2.033,1.175c1.329,1.574.919,5.4,0,6.765s-1.533,1.8-1.512,1.737a13.532,13.532,0,0,0,.409-5.15,12.442,12.442,0,0,0-1.032-2.988Z" transform="translate(-1347.456 -398.29)" fill="#7a4e34"/>
            <path id="Path_513" data-name="Path 513" d="M1400.918,503.81a1.415,1.415,0,0,1-2.457,0Z" transform="translate(-1392.94 -495.276)" fill="#fff"/>
          </g>
          <path id="Path_514" data-name="Path 514" d="M1357.071,660.119h-8.252a.959.959,0,0,1,0-1.919h8.252a.959.959,0,0,1,0,1.919Z" transform="translate(-1338.676 -633.503)" fill="#99bbeb"/>
          <path id="Path_515" data-name="Path 515" d="M1341.413,696.568H1330.14a.959.959,0,1,1,0-1.918h11.273a.959.959,0,0,1,0,1.918Z" transform="translate(-1321.507 -667.005)" fill="#99bbeb"/>
          <path id="Path_516" data-name="Path 516" d="M1262.29,836.813h-27.424a.556.556,0,0,1,0-1.113h27.424a.556.556,0,1,1,0,1.113Z" transform="translate(-1234.31 -796.647)" fill="#99bbeb"/>
          <path id="Path_517" data-name="Path 517" d="M1262.29,868.813h-27.424a.556.556,0,0,1,0-1.113h27.424a.556.556,0,1,1,0,1.113Z" transform="translate(-1234.31 -826.059)" fill="#99bbeb"/>
          <path id="Path_518" data-name="Path 518" d="M1262.29,900.813h-27.424a.556.556,0,0,1,0-1.113h27.424a.556.556,0,1,1,0,1.113Z" transform="translate(-1234.31 -855.471)" fill="#99bbeb"/>
          <path id="Path_519" data-name="Path 519" d="M1297.077,373.023h-19.753a1,1,0,0,1-.994-.994v-18.2a1,1,0,0,1,.994-.994h19.753a1,1,0,0,1,.994.994v18.2A1,1,0,0,1,1297.077,373.023Zm-19.753-19.384a.188.188,0,0,0-.185.185v18.2a.188.188,0,0,0,.185.185h19.753a.188.188,0,0,0,.185-.185v-18.2a.188.188,0,0,0-.185-.185Z" transform="translate(-1272.932 -352.83)" fill="#99bbeb"/>
          <g id="Group_1780" data-name="Group 1780" transform="translate(5.392 32.067)">
            <path id="Path_520" data-name="Path 520" d="M1302.83,749.32l.572,1.159,1.279.185-.925.9.218,1.273-1.144-.6-1.143.6.218-1.273-.925-.9,1.279-.185Z" transform="translate(-1300.98 -749.32)" fill="#99bbeb"/>
            <path id="Path_521" data-name="Path 521" d="M1360.741,749.32l.572,1.159,1.278.185-.925.9.219,1.273-1.144-.6-1.144.6.219-1.273-.926-.9,1.279-.185Z" transform="translate(-1354.207 -749.32)" fill="#99bbeb"/>
            <path id="Path_522" data-name="Path 522" d="M1418.66,749.32l.572,1.159,1.279.185-.925.9.218,1.273-1.144-.6-1.143.6.218-1.273-.925-.9,1.279-.185Z" transform="translate(-1407.442 -749.32)" fill="#99bbeb"/>
            <path id="Path_523" data-name="Path 523" d="M1476.571,749.32l.573,1.159,1.278.185-.925.9.219,1.273-1.144-.6-1.144.6.219-1.273-.926-.9,1.279-.185Z" transform="translate(-1460.668 -749.32)" fill="#99bbeb"/>
          </g>
        </g>
      </g>
      <path id="Path_524" data-name="Path 524" d="M606.76,370.52H551.27l3.925-56.84H608.76Z" transform="translate(-506.685 -288.31)" fill="#99bbeb" opacity="0.2"/>
      <g id="Group_1786" data-name="Group 1786" transform="translate(50.414 14.614)">
        <rect id="Rectangle_1019" data-name="Rectangle 1019" width="48.024" height="78.714" fill="#cbcbcb"/>
        <rect id="Rectangle_1020" data-name="Rectangle 1020" width="43.931" height="74.111" transform="translate(2.515 1.604)" fill="#fff"/>
        <g id="Group_1785" data-name="Group 1785" transform="translate(5.061 4.764)">
          <g id="Group_1783" data-name="Group 1783" transform="translate(10.039 3.424)">
            <path id="Path_525" data-name="Path 525" d="M865.247,290.913c-.031-.092-.8-4.507-.892-6.223s2.759-1.962,2.759-1.962,2.33-1.257,4.016-.613a6.793,6.793,0,0,1,3.6,3.076c.767,1.349-.675,5.553-.675,5.553l-8.809.17Z" transform="translate(-859.961 -281.931)" fill="#2e2d3d"/>
            <path id="Path_526" data-name="Path 526" d="M810.046,493.718c-.011-.073.2-1.81.2-1.88.388-3.658,4.9-4.688,9.4-4.688,5.287,0,8.874.967,9.446,4.769.017.112.322,1.853.307,1.97C819.6,494.024,810.046,493.718,810.046,493.718Z" transform="translate(-810.045 -470.553)" fill="#d5e1e8"/>
            <path id="Path_527" data-name="Path 527" d="M900.919,391.074c-.524.773-.908.806-1.477,0-.452-.64-1.962-2.1-1.962-2.84l.62-7.362a1.347,1.347,0,0,1,1.343-1.343h1.477a1.347,1.347,0,0,1,1.342,1.343l.288,7.362C902.55,388.973,901.389,390.381,900.919,391.074Z" transform="translate(-890.409 -371.637)" fill="#ffb27d"/>
            <path id="Path_528" data-name="Path 528" d="M901.847,379.54h-1.477a1.347,1.347,0,0,0-1.343,1.343l-.538,6.531c1.658.528,3.9-.545,4.887-1.727l-.188-4.8a1.347,1.347,0,0,0-1.343-1.343Z" transform="translate(-891.337 -371.646)" fill="#ed975d"/>
            <path id="Path_529" data-name="Path 529" d="M868.22,492.191l2.367,4.375s1.267-1.042,1.389-.838a18.665,18.665,0,0,1-.225,2.784,24.38,24.38,0,0,0,2.943-.084c.123-.123-.573-2.8-.286-2.8s1.147.776,1.147.776l2.643-4.212-.581-.142-4.33,2.33-4.632-2.279Z" transform="translate(-863.515 -475.056)" fill="#bdccd4"/>
            <path id="Path_530" data-name="Path 530" d="M901.69,511.4l1.758,1.179-.545,3.131,2.37-.132-.592-2.848,1.457-1.331-.685-.645h-3.08Z" transform="translate(-894.278 -492.244)" fill="#d54a41"/>
            <path id="Path_531" data-name="Path 531" d="M874.294,464.955l-2.174,2.069s2.215,3.939,2.338,3.939,1.88-2.172,1.88-2.172l1.125-.019,1.778,1.865,2.066-3.654L879.2,464.75s-1.8,3.474-2.125,3.556-.329.123-.594-.082-2.185-3.27-2.185-3.27Z" transform="translate(-867.1 -449.964)" fill="#d5e1e8"/>
            <ellipse id="Ellipse_5" data-name="Ellipse 5" cx="4.463" cy="6.081" rx="4.463" ry="6.081" transform="translate(5.309 1.888)" fill="#ffb27d"/>
            <path id="Path_532" data-name="Path 532" d="M854.484,366.048c.417.879.281,1.817-.3,2.1s-1.4-.209-1.816-1.088-.281-1.817.3-2.1S854.067,365.169,854.484,366.048Z" transform="translate(-848.718 -358.173)" fill="#ffb27d"/>
            <path id="Path_533" data-name="Path 533" d="M975.173,366.048c-.417.879-.281,1.817.3,2.1s1.4-.209,1.817-1.088.281-1.817-.3-2.1S975.59,365.169,975.173,366.048Z" transform="translate(-961.596 -358.173)" fill="#ffb27d"/>
            <path id="Path_534" data-name="Path 534" d="M910.35,411.31s-.886,1.436-1.98,1.436-1.98-1.436-1.98-1.436Z" transform="translate(-898.598 -400.846)" fill="#fff"/>
            <path id="Path_535" data-name="Path 535" d="M877.268,300.908c1.839-1.288,2.667-1.073,4.046,1.042a4.133,4.133,0,0,0,3.035,2.153l.214-2.193s-2.055-3.975-4.814-3.454a7.28,7.28,0,0,0-4.328,3s-.134,4.654.251,4.813.429-1.5.705-1.839-.276-1.931.092-2.667.8-.858.8-.858Z" transform="translate(-870.114 -297.076)" fill="#2e2d3d"/>
            <path id="Path_536" data-name="Path 536" d="M971.65,358.88c.642.7.4,3.495.736,3.464s.46-2.667.368-2.943S971.65,358.88,971.65,358.88Z" transform="translate(-958.58 -352.657)" fill="#2e2d3d"/>
          </g>
          <path id="Path_537" data-name="Path 537" d="M805.751,657.48h-20.5a1.31,1.31,0,0,1,0-2.62h20.5a1.31,1.31,0,0,1,0,2.62Z" transform="translate(-776.013 -621.275)" fill="#99bbeb"/>
          <path id="Path_538" data-name="Path 538" d="M832.2,707.26H816.8a1.31,1.31,0,0,1,0-2.62h15.4a1.31,1.31,0,0,1,0,2.62Z" transform="translate(-805.011 -667.029)" fill="#99bbeb"/>
          <path id="Path_539" data-name="Path 539" d="M724.137,898.82H686.68a.76.76,0,1,1,0-1.521h37.457a.76.76,0,1,1,0,1.521Z" transform="translate(-685.92 -844.107)" fill="#99bbeb"/>
          <path id="Path_540" data-name="Path 540" d="M724.137,942.52H686.68a.76.76,0,1,1,0-1.521h37.457a.76.76,0,1,1,0,1.521Z" transform="translate(-685.92 -884.273)" fill="#99bbeb"/>
          <path id="Path_541" data-name="Path 541" d="M724.137,986.22H686.68a.76.76,0,1,1,0-1.521h37.457a.76.76,0,1,1,0,1.521Z" transform="translate(-685.92 -924.438)" fill="#99bbeb"/>
          <path id="Path_542" data-name="Path 542" d="M773.319,266.884H746.34a1.211,1.211,0,0,1-1.21-1.21V240.81a1.211,1.211,0,0,1,1.21-1.21h26.979a1.211,1.211,0,0,1,1.21,1.21v24.865a1.211,1.211,0,0,1-1.21,1.21ZM746.34,240.409a.4.4,0,0,0-.4.4v24.865a.4.4,0,0,0,.4.4h26.979a.4.4,0,0,0,.4-.4V240.81a.4.4,0,0,0-.4-.4Z" transform="translate(-740.341 -239.6)" fill="#99bbeb"/>
          <g id="Group_1784" data-name="Group 1784" transform="translate(4.115 43.651)">
            <path id="Path_543" data-name="Path 543" d="M739.327,779.32l.781,1.583,1.746.253-1.263,1.233.3,1.739-1.562-.821-1.562.821.3-1.739-1.263-1.233,1.746-.253Z" transform="translate(-736.8 -779.32)" fill="#99bbeb"/>
            <path id="Path_544" data-name="Path 544" d="M818.427,779.32l.781,1.583,1.747.253-1.264,1.233.3,1.739-1.562-.821-1.562.821.3-1.739-1.264-1.233,1.747-.253Z" transform="translate(-809.503 -779.32)" fill="#99bbeb"/>
            <path id="Path_545" data-name="Path 545" d="M897.527,779.32l.781,1.583,1.747.253-1.264,1.233.3,1.739-1.563-.821-1.562.821.3-1.739L895,781.156l1.747-.253Z" transform="translate(-882.205 -779.32)" fill="#99bbeb"/>
            <path id="Path_546" data-name="Path 546" d="M976.628,779.32l.781,1.583,1.747.253-1.264,1.233.3,1.739-1.562-.821-1.562.821.3-1.739-1.264-1.233,1.747-.253Z" transform="translate(-954.908 -779.32)" fill="#99bbeb"/>
            <path id="Path_547" data-name="Path 547" d="M1056.988,779.32l.781,1.583,1.747.253-1.264,1.233.3,1.739-1.562-.821-1.562.821.3-1.739-1.264-1.233,1.747-.253Z" transform="translate(-1028.769 -779.32)" fill="#99bbeb"/>
          </g>
        </g>
      </g>
      <rect id="Rectangle_1021" data-name="Rectangle 1021" width="62.967" height="2.346" rx="1.173" transform="translate(113.272 88.452)" fill="#ecf4fc"/>
      <g id="Group_1787" data-name="Group 1787" transform="translate(138.146 48.36)">
        <path id="Path_548" data-name="Path 548" d="M2271.434,655.97a5.583,5.583,0,0,1-3.451,6.615c-2.246.637-3.85-1.363-4.684-4.307s.309-5.847,2.556-6.484,4.745,1.232,5.58,4.177Z" transform="translate(-2218.144 -647.324)" fill="#ffb27d"/>
        <path id="Path_549" data-name="Path 549" d="M2181.681,1410.15s5.758,8.943,6.535,9.332,2.721.486,1.993,1.944-1.02,7.193-1.7,7.484-6.512.972-5.638,0,1.413-.486,1.855-2.235,1.062-5.055.236-5.735-5.881-6.8-5.881-6.8l2.6-3.985Z" transform="translate(-2140.988 -1344.462)" fill="#ffb27d"/>
        <path id="Path_550" data-name="Path 550" d="M1719.813,1457.63s-7,11.535-8.295,12.572-5.573,2.592-2.074,2.852,5.184-1.166,7.387-1.815,4.926-1.037,3.889-2.722-.607-5.363,1.629-7.7-2.536-3.191-2.536-3.191Z" transform="translate(-1708.097 -1388.101)" fill="#ffb27d"/>
        <path id="Path_551" data-name="Path 551" d="M1854.9,1126.8s-17.325-.453-24.195,5.184c-4.018,6.092-13.738,24.065-14.493,26.046a9.73,9.73,0,0,0,4.731,1.324c3.823-4.559,8.877-8.5,10.886-12.077,2.477-4.407,3.24-6.61,7.258-7s13.091-1.685,15.813-1.685,0-11.795,0-11.795Z" transform="translate(-1807.466 -1084.021)" fill="#505050"/>
        <path id="Path_552" data-name="Path 552" d="M2397.041,1339.931h-.908l-6.512-27.171h2Z" transform="translate(-2334.5 -1254.948)" fill="#ecf4fc"/>
        <path id="Path_553" data-name="Path 553" d="M2144.99,1329.012h.908l7.473-28.132h-2Z" transform="translate(-2109.655 -1244.029)" fill="#ecf4fc"/>
        <path id="Path_554" data-name="Path 554" d="M2029.466,1112.221l-10.073,1.739s-13.386.123-19.5,1.263c-5.567,1.037-6.387,7.362,0,16.071,3.628,4.947,6.7,8.894,12.969,13.344,1.6-1.172,2.206-1.615,2.647-4.434-.454-.623-1.63-4.518-1.995-5.281-3.469-7.253-8.1-9.891-8.165-10.6.778-1.263,20.6,6.587,24.539,1.968,3.762-4.408-.418-14.066-.418-14.066Z" transform="translate(-1972.164 -1070.627)" fill="#5d5d5d"/>
        <path id="Path_555" data-name="Path 555" d="M2275.71,828.969a10.541,10.541,0,0,0-7.881,1.961,15.852,15.852,0,0,0-4.554,12.086c.195,7.776-1.2,8.275.255,10.414,6.081,2.511,16.482,13.3,14.032,1.733-1.773-8.376,3.89-14.618-.678-23.909-.372-.756-.836-1.49-1.172-2.286Z" transform="translate(-2217.99 -810.179)" fill="#f37168"/>
        <path id="Path_556" data-name="Path 556" d="M2263.279,868.015c-.118,4.053-.691,5.248-.254,6.519,2.479.253,7.014,1.245,8.147,2.832,1.3,1.814,2.592,2.074,1.987.734s-2.2-3.24.26-9.763,3.629-10.931,1.21-15.466Z" transform="translate(-2217.995 -832.253)" fill="#d54a41"/>
        <path id="Path_557" data-name="Path 557" d="M2332.192,736.942a31.637,31.637,0,0,1-2.035-8.212l-4.276,1.263s2.431,5.443.1,7.387a22.364,22.364,0,0,0-1.667,1.523,10.536,10.536,0,0,1,7.881-1.961Z" transform="translate(-2274.472 -718.153)" fill="#ffb27d"/>
        <path id="Path_558" data-name="Path 558" d="M2348.219,732.361c-.253-.226-.57-.507-.9-.8l-3.488,1.03-.008.018a14.215,14.215,0,0,1,1.09,4.261,12.3,12.3,0,0,0,3.479-3.455C2348.318,733.016,2348.263,732.661,2348.219,732.361Z" transform="translate(-2292.404 -720.754)" fill="#ed975d"/>
        <path id="Path_559" data-name="Path 559" d="M2089.308,843.906c-4.4,1.541-3.916,6.182-7.97,13.025-2.1,3.542-4.047,3.489-4.047,3.489a93.846,93.846,0,0,1-10.872-.688c-3.727-.455-3.964.653-1.372,1.58,5.228,1.869,10.653,3.881,15.027,3.395s11.855-11.646,12.241-14.551c.534-4.018-.789-7.026-3.007-6.25Z" transform="translate(-2034.594 -823.901)" fill="#f09959"/>
        <path id="Path_560" data-name="Path 560" d="M2180.566,993.2q-.411,0-.842-.01a41.936,41.936,0,0,1-8-.984c-2.292-.466-3.555-.722-5.025-.02a1.132,1.132,0,1,1-.976-2.044c2.153-1.03,3.957-.663,6.452-.155a39.919,39.919,0,0,0,7.6.94c3.8.095,6.109-.468,7.282-1.769,1.045-1.159,1.351-3.106.963-6.126-.133-1.034-.267-1.894-.384-2.653a18.378,18.378,0,0,1-.279-5.74,67.28,67.28,0,0,1,2.48-9.978,1.133,1.133,0,1,1,2.171.645c-2.9,9.771-2.754,10.723-2.135,14.728.12.772.255,1.647.392,2.71.479,3.726-.006,6.246-1.526,7.932-1.566,1.736-4.107,2.527-8.178,2.527Z" transform="translate(-2128.121 -934.258)" fill="#ecf4fc"/>
        <path id="Path_561" data-name="Path 561" d="M1720.284,1577.84c-4.644,2.271-7.143,3.573-8.632,3.448-.352-.029-.643-.065-.887-.1-1.656.979-4.3,2.135-1.326,2.356,3.5.259,5.184-1.166,7.387-1.815s4.925-1.037,3.889-2.722A3.517,3.517,0,0,1,1720.284,1577.84Z" transform="translate(-1708.092 -1498.589)" fill="#d54a41"/>
        <path id="Path_562" data-name="Path 562" d="M2230.8,1527.87c-.114,3.677-.619,7.32-2.868,8.009a3.778,3.778,0,0,1-1.62.145c-.353.438-.785.442-1.364,1.085-.875.972,4.957.292,5.638,0s.972-6.026,1.7-7.485C2232.884,1528.427,2231.679,1528.147,2230.8,1527.87Z" transform="translate(-2183.062 -1452.66)" fill="#d54a41"/>
        <path id="Path_563" data-name="Path 563" d="M1828.851,926.069H1814.1a1.133,1.133,0,0,1-1.027-.655l-5.963-12.831a1.133,1.133,0,0,1,2.055-.954l5.657,12.176h14.031a1.132,1.132,0,1,1,0,2.265Z" transform="translate(-1799.003 -885.656)" fill="#505050"/>
        <path id="Path_564" data-name="Path 564" d="M1966.22,1024.538c-2.981-.042-5.937-1.82-7.406-1.561s-6.265,3.586-5.66,3.716,4.407-1.841,4.536-1.871a6.393,6.393,0,0,0,2.981,1.877c2.031.512.014-1.522,6.309.379,4.092,1.236-.76-2.541-.76-2.541Z" transform="translate(-1933.286 -988.578)" fill="#ffb27d"/>
        <path id="Path_565" data-name="Path 565" d="M2301.671,786.63l.439,3.53s-3.859.23-5.777,1.309a27.233,27.233,0,0,0-4.752,4.2l2.315-3.985.333-2.549Z" transform="translate(-2244.389 -771.37)" fill="#f2e5de"/>
        <path id="Path_566" data-name="Path 566" d="M2140.689,839.247c-2.866-.537-4.19,2.031-6.048,6.221a60.231,60.231,0,0,1-5.66,9.937c-.631.656-10.628,0-10.628,0s-.3,2.895,0,3.24,2.031.3,2.031.3.692.552,1.34.989,6.135,1.258,8.684,1.128,4.882-.345,5.227-.734,7.3-11.1,7.733-14.948S2142.15,839.521,2140.689,839.247Z" transform="translate(-2085.048 -819.666)" fill="#f2e5de"/>
        <path id="Path_567" data-name="Path 567" d="M2239.107,599.9c-5.418.26-4.569,8.411-4.569,8.411a10.545,10.545,0,0,0,4.356-.052,16.273,16.273,0,0,1-.129-3.111,20.283,20.283,0,0,0,.779,2.917c.623.286,1.329.032,2.527-.257a5.331,5.331,0,0,0,3.546,4.059c1.316.414,2.709.908,4.265.13s.7-8.727-.126-10.326c-1.24-2.4-3.3-4.547-6.864-3.413a26.468,26.468,0,0,0-3.783,1.642Z" transform="translate(-2191.917 -597.945)" fill="#2e2e2e"/>
        <path id="Path_568" data-name="Path 568" d="M2408.1,735.192l2.215,3.236s-2.455,6.135,4.686,8.914c5.593,2.176,4.933,6.012,2.407,9.869s1.512,7.226,1.512,7.226.616-4.273,6.05-5.079c7.408-1.1,9.507-11.047,3.972-16.021-4.579-4.116-5.973-.708-9.073-4.4s-8.951-1.2-8.951-1.2l-2.145-3.127-.674.583Z" transform="translate(-2351.486 -723.557)" fill="#2e2e2e"/>
        <path id="Path_569" data-name="Path 569" d="M2461.3,772.884a.2.2,0,0,1-.1-.024.2.2,0,0,1-.078-.268c1.863-3.4.343-7.53-.421-8.647-.081-.118-.158-.239-.24-.366-.75-1.173-1.686-2.632-6.675-3.53a7.933,7.933,0,0,1-3.2-1.686c-2.127-1.562-4.54-3.332-9.778-.92a.2.2,0,1,1-.164-.358c5.449-2.508,7.96-.666,10.174.961a7.667,7.667,0,0,0,3.041,1.617c5.158.928,6.144,2.468,6.937,3.7.08.125.155.242.233.356.8,1.17,2.394,5.492.442,9.059a.2.2,0,0,1-.172.1Z" transform="translate(-2381.29 -743.084)" fill="#2e2e2e"/>
        <path id="Path_570" data-name="Path 570" d="M2327.678,695.217a7.755,7.755,0,0,1-1.151-.093c-1.9-.284-4.439-1.361-4.638-7.412a.2.2,0,0,1,.393-.013c.083,2.493.577,4.339,1.47,5.484a4.13,4.13,0,0,0,2.833,1.55c1.754.263,2.918-.062,3.456-.963a.2.2,0,1,1,.338.2,2.891,2.891,0,0,1-2.7,1.243Z" transform="translate(-2272.247 -680.266)" fill="#2e2e2e"/>
      </g>
      <path id="Path_571" data-name="Path 571" d="M1482.21,1156.7h1.456l5.664-43.294h-3.2Z" transform="translate(-1362.333 -1023.361)" fill="#ecf4fc"/>
      <path id="Path_572" data-name="Path 572" d="M2012.15,1156.7h-1.456l-5.664-43.294h3.2Z" transform="translate(-1842.869 -1023.361)" fill="#ecf4fc"/>
      <g id="Group_1788" data-name="Group 1788" transform="translate(208.78 86.713)">
        <path id="Path_573" data-name="Path 573" d="M2769.149,1196.87c2.518,2.3,1.422,4.6-.438,8.871s-2.19,20.042-2.19,20.042l1.533-.219s-.219-16.209,1.861-20.589,2.957-6.571,4.819-5.147S2769.149,1196.87,2769.149,1196.87Z" transform="translate(-2751.552 -1186.783)" fill="#74b570"/>
        <path id="Path_574" data-name="Path 574" d="M2780.355,1079.263c.306-1.363,2.122-2.838,4.552-4.089-.362,2.01-1.52,5.3-.321,5.971,1.617.909.157-3.68.781-6.2a30.015,30.015,0,0,1,7.552-2.477c0,.01-.007.018-.01.027-1.423,3.614-3.285,5.038-2.519,5.585.577.412,2.456-3.763,4.936-5.9a6.674,6.674,0,0,1,4.369.891c1.44,1.14,2.407,2.152.959,5.624a6.512,6.512,0,0,1-3.146,1.14c-3.285.328-4.819.438-2.519,1.533,1.126.536,3.014-.031,4.544-.375-.5.915-1.107,1.951-1.848,3.13a11.647,11.647,0,0,1-1.539,1.958,4.859,4.859,0,0,1-2.472,0c-1.533-.657-5.476-2.738-6.461-1.861-.965.857,7.3,1.4,6.73,3.579-4.007,2.308-8.592,1.21-9.4-.91-1.089-2.847-5.107-3.516-4.187-7.619Z" transform="translate(-2764.141 -1072.154)" fill="#2c7b28"/>
        <path id="Path_575" data-name="Path 575" d="M2743.454,1336.663c-4.381-3.285-8.872-.219-11.172,3.285s-.656,11.39-.656,11.39.875,0,.875-.329-2.409-9.309,3.286-13.362c3.562-2.535,6.132-1.314,6.461-.109s-1.423,3.4-1.423,3.4Z" transform="translate(-2718.957 -1313.982)" fill="#74b570"/>
        <path id="Path_576" data-name="Path 576" d="M2757.527,1269.09c4.381,0,5.8,6.791,4.6,10.733s-2.848,11.28-2.848,11.28l-1.095-1.095s4.162-10.295,3.176-14.894-3.4-5.366-3.833-5.366,0-.657,0-.657Z" transform="translate(-2743.106 -1253.162)" fill="#2c7b28"/>
        <path id="Path_577" data-name="Path 577" d="M2792.689,1391.159a3.171,3.171,0,0,1,1.154-.969,8.672,8.672,0,0,1-.227.938c-.55,1.8-1.189,4.3-1.723,6.488l-.239-1.38c-.028-.158-.049-.328-.064-.51A42.348,42.348,0,0,0,2792.689,1391.159Z" transform="translate(-2774.594 -1364.468)" fill="#74b570"/>
        <path id="Path_578" data-name="Path 578" d="M2794.246,1332.405c8.324-3.5,3.938-8.314,11.276-5.138a1.277,1.277,0,1,1-.547,1.753c-2.19-.328-1.424,1.423,2.189,1.862a8.092,8.092,0,0,1,1.694.357c1.722,3.307,2.5,7.658-1.146,9.171a8.262,8.262,0,0,1-2.593.532c-1.124-.894.274-6.065-1.459-5.351-1.665.686.521,4.433.222,5.378a24.026,24.026,0,0,1-5.2-.729,2.59,2.59,0,0,1-1.375-1.582c-.548-2.3,3.067-3.723,3.176-5.695.1-1.812-1.325,3.987-5.1,4.841-3.415-1.595-5.027-3.759-1.137-5.4Z" transform="translate(-2774.953 -1305.681)" fill="#2c7b28"/>
        <path id="Path_579" data-name="Path 579" d="M2594.8,1235.739c.876-1.862-1.423-2.3-1.314-.876.1,1.262.107,4.328-1.187,5.163a20.321,20.321,0,0,1-7.563-2.511.934.934,0,0,1,.1-.571c.986-1.972,7.337-3.614,5.366-4.271-1.57-.523-4.321,2.565-6.538,4.121a4.715,4.715,0,0,1-2.224-3.558c0-1.82,2.211-3.879,5.069-4.863,1.286.129,2.482.833,4.349,1.891,2.758,1.563,2.12-.964-.487-2.464a7.854,7.854,0,0,1,6.15,3.376,3.837,3.837,0,0,0,.882,2.5c2.835,4.145-.437,6.564-4.348,6.407a25.707,25.707,0,0,1,1.745-4.345Z" transform="translate(-2581.44 -1215.212)" fill="#2c7b28"/>
        <path id="Path_580" data-name="Path 580" d="M2869.93,1349.986a37.188,37.188,0,0,0,7.441,4.9c2.92,1.314,2.337,5.6,2.337,5.6s.438-3.7-2-4.965-4.041-2.775-5.891-3.067a26.936,26.936,0,0,1-2.872-.584s.584-1.169.243-1.607.736-.28.736-.28Z" transform="translate(-2845.697 -1327.49)" fill="#74b570"/>
        <path id="Path_581" data-name="Path 581" d="M2832.923,1110a34.345,34.345,0,0,0-14.652,8.324c-1.071,1.217-1.071,1.557-1.071,1.557l.828,1.558.389-.195s-.632-1.314,1.023-3.018a29.962,29.962,0,0,1,8.712-6.279c2.386-1.022,4.77-1.947,4.77-1.947Z" transform="translate(-2798.133 -1106.939)" fill="#74b570"/>
        <path id="Path_582" data-name="Path 582" d="M3.855,0H6.849A3.857,3.857,0,0,1,10.7,3.855v6.879H0V3.855A3.857,3.857,0,0,1,3.855,0Z" transform="translate(20.006 46.441) rotate(180)" fill="#fff"/>
        <rect id="Rectangle_1022" data-name="Rectangle 1022" width="10.704" height="0.754" transform="translate(9.302 36.936)" fill="#fff"/>
        <rect id="Rectangle_1023" data-name="Rectangle 1023" width="10.704" height="0.443" transform="translate(9.302 38.31)" fill="#fff"/>
      </g>
      <g id="Group_1789" data-name="Group 1789" transform="translate(9.304 119.731)">
        <rect id="Rectangle_1024" data-name="Rectangle 1024" width="4.507" height="4.057" rx="2.028" transform="translate(20.898 4.057) rotate(180)" fill="#f9f9fc"/>
        <rect id="Rectangle_1025" data-name="Rectangle 1025" width="4.507" height="4.057" rx="2.028" transform="translate(12.703 4.057) rotate(180)" fill="#f9f9fc"/>
        <rect id="Rectangle_1026" data-name="Rectangle 1026" width="4.507" height="4.057" rx="2.028" transform="translate(4.507 4.057) rotate(180)" fill="#f9f9fc"/>
      </g>
      <g id="Group_1790" data-name="Group 1790" transform="translate(239.447 44.659)">
        <path id="Path_583" data-name="Path 583" d="M.977,0H3.531a.978.978,0,0,1,.977.977v2.1a.977.977,0,0,1-.977.977H.977A.978.978,0,0,1,0,3.081V.977A.977.977,0,0,1,.976,0Z" transform="translate(4.058) rotate(90)" fill="#f9f9fc"/>
        <path id="Path_584" data-name="Path 584" d="M.978,0H3.532a.977.977,0,0,1,.976.976v2.1a.977.977,0,0,1-.977.977H.977A.978.978,0,0,1,0,3.08V.976A.977.977,0,0,1,.976,0Z" transform="translate(4.058 8.194) rotate(90)" fill="#f9f9fc"/>
        <path id="Path_585" data-name="Path 585" d="M.977,0H3.531a.977.977,0,0,1,.976.976v2.1a.977.977,0,0,1-.977.977H.976A.977.977,0,0,1,0,3.081V.977A.977.977,0,0,1,.976,0Z" transform="translate(4.058 16.391) rotate(90)" fill="#f9f9fc"/>
      </g>
    </g>
  </g>
</svg>
